<svg width="24" height="24" viewBox="0 0 24 24" fill="none" xmlns="http://www.w3.org/2000/svg">
<rect width="24" height="24" fill="url(#paint0_radial_2_119)"/>
<path fill-rule="evenodd" clip-rule="evenodd" d="M3.98584 11.7589C3.98584 7.29297 7.48605 3.98511 12.0001 3.98511C16.5141 3.98511 20.0143 7.29498 20.0143 11.7609C20.0143 16.2268 16.5141 19.5347 12.0001 19.5347C11.1886 19.5347 10.4112 19.4265 9.67994 19.2261C9.53769 19.1881 9.38542 19.1981 9.25118 19.2582L7.66036 19.9594C7.24362 20.1438 6.77479 19.8472 6.76076 19.3924L6.71668 17.9659C6.71268 17.7896 6.63253 17.6253 6.5023 17.5091C4.94354 16.1146 3.98584 14.095 3.98584 11.7589ZM9.54155 10.2983L7.18738 14.0329C6.96098 14.3916 7.40176 14.7943 7.73835 14.5378L10.2668 12.6184C10.4371 12.4882 10.6736 12.4882 10.8459 12.6164L12.7192 14.0209C13.2822 14.4417 14.0836 14.2954 14.4583 13.7003L16.8144 9.96772C17.0388 9.60909 16.5981 9.20437 16.2615 9.46082L13.733 11.3802C13.5627 11.5105 13.3263 11.5105 13.1539 11.3822L11.2806 9.97774C10.7176 9.557 9.91621 9.70325 9.54155 10.2983Z" fill="white"/>
<defs>
<radialGradient id="paint0_radial_2_119" cx="0" cy="0" r="1" gradientUnits="userSpaceOnUse" gradientTransform="translate(4.62 23.8712) scale(26.1504 26.1481)">
<stop stop-color="#0099FF"/>
<stop offset="0.6098" stop-color="#A033FF"/>
<stop offset="0.9348" stop-color="#FF5280"/>
<stop offset="1" stop-color="#FF7061"/>
</radialGradient>
</defs>
</svg>
