<svg width="24" height="24" viewBox="0 0 24 24" fill="none" xmlns="http://www.w3.org/2000/svg">
<rect width="24" height="24" fill="url(#paint0_linear_2_57)"/>
<path d="M20.7656 11.4843C20.7656 15.497 16.8411 18.7499 12 18.7499C11.2668 18.7499 10.5546 18.6753 9.87383 18.5347C9.66817 18.4923 9.45376 18.4866 9.26812 18.5848C8.66014 18.9063 7.65959 19.7203 6.35671 19.7779C6.2979 19.7805 6.265 19.713 6.30119 19.6666C7.07119 18.6784 7.573 17.7651 7.24219 17.5875C4.83032 16.2931 3.23438 14.0432 3.23438 11.4843C3.23438 7.47166 7.15888 4.21875 12 4.21875C16.8411 4.21875 20.7656 7.47166 20.7656 11.4843Z" fill="white"/>
<defs>
<linearGradient id="paint0_linear_2_57" x1="12" y1="0" x2="12" y2="24" gradientUnits="userSpaceOnUse">
<stop stop-color="#5AF575"/>
<stop offset="1" stop-color="#08BD2B"/>
</linearGradient>
</defs>
</svg>
