<svg width="24" height="24" viewBox="0 0 24 24" fill="none" xmlns="http://www.w3.org/2000/svg">
<rect width="24" height="24" fill="url(#paint0_radial_3_186)"/>
<rect width="24" height="24" fill="url(#paint1_radial_3_186)"/>
<path d="M19.9552 8.70136C19.9168 7.84948 19.7792 7.26661 19.584 6.75741C19.3791 6.23219 19.1071 5.78383 18.6622 5.34187C18.2173 4.89992 17.7724 4.6213 17.2475 4.41954C16.7386 4.22098 16.1561 4.08647 15.3047 4.04804C14.4501 4.00961 14.1781 4 12.008 4C9.83481 4 9.56275 4.00961 8.71138 4.04804C7.86001 4.08647 7.2775 4.22418 6.7686 4.41954C6.24049 4.6245 5.7924 4.89672 5.35071 5.34187C4.90902 5.78703 4.63057 6.23219 4.42893 6.75741C4.23369 7.26661 4.09606 7.84948 4.05765 8.70136C4.01925 9.55645 4.00964 9.82866 4.00964 12C4.00964 14.1745 4.01925 14.4468 4.05765 15.2986C4.09606 16.1505 4.23369 16.7334 4.42893 17.2426C4.63377 17.7678 4.90582 18.2162 5.35071 18.6581C5.7924 19.1033 6.24049 19.3787 6.76539 19.5805C7.2743 19.779 7.85681 19.9135 8.70818 19.952C9.56275 19.9904 9.83481 20 12.0048 20C14.1781 20 14.4501 19.9904 15.3015 19.952C16.1529 19.9135 16.7354 19.7758 17.2443 19.5805C17.7692 19.3755 18.2173 19.1033 18.659 18.6581C19.1007 18.213 19.3791 17.7678 19.5808 17.2426C19.7792 16.7334 19.9136 16.1505 19.952 15.2986C19.9904 14.4436 20 14.1713 20 12C20 9.82866 19.9936 9.55324 19.9552 8.70136ZM18.5181 15.2346C18.4829 16.016 18.3517 16.442 18.2429 16.7206C18.0989 17.0921 17.9228 17.3611 17.6412 17.6429C17.3595 17.9247 17.0939 18.0945 16.7194 18.245C16.4377 18.3539 16.012 18.4852 15.2343 18.5204C14.3925 18.5588 14.1397 18.5685 12.0016 18.5685C9.86361 18.5685 9.61076 18.5588 8.769 18.5204C7.98804 18.4852 7.56235 18.3539 7.2839 18.245C6.91262 18.1009 6.64377 17.9247 6.36211 17.6429C6.08046 17.3611 5.91082 17.0953 5.76039 16.7206C5.65157 16.4388 5.52035 16.0128 5.48514 15.2346C5.44673 14.3923 5.43713 14.1393 5.43713 12C5.43713 9.86069 5.44673 9.60769 5.48514 8.76541C5.52035 7.98399 5.65157 7.55805 5.76039 7.27942C5.90442 6.90793 6.08046 6.63891 6.36211 6.35709C6.64377 6.07526 6.90942 5.90552 7.2839 5.755C7.56555 5.64612 7.99124 5.51481 8.769 5.47958C9.61076 5.44115 9.86361 5.43155 12.0016 5.43155C14.1397 5.43155 14.3925 5.44115 15.2343 5.47958C16.0152 5.51481 16.4409 5.64612 16.7194 5.755C17.0907 5.89912 17.3595 6.07526 17.6412 6.35709C17.9228 6.63891 18.0925 6.90472 18.2429 7.27942C18.3517 7.56125 18.4829 7.98719 18.5181 8.76541C18.5566 9.60769 18.5662 9.86069 18.5662 12C18.5662 14.1393 18.5534 14.3923 18.5181 15.2346Z" fill="white"/>
<path d="M12.0017 7.88794C9.72926 7.88794 7.89209 9.72941 7.89209 12C7.89209 14.2738 9.73246 16.1121 12.0017 16.1121C14.271 16.1121 16.1113 14.2674 16.1113 12C16.1113 9.72621 14.2742 7.88794 12.0017 7.88794ZM12.0017 14.6678C10.5294 14.6678 9.33558 13.4732 9.33558 12C9.33558 10.5269 10.5294 9.3323 12.0017 9.3323C13.474 9.3323 14.6678 10.5269 14.6678 12C14.6678 13.4732 13.474 14.6678 12.0017 14.6678Z" fill="white"/>
<path d="M16.2713 8.68857C16.8016 8.68857 17.2315 8.25842 17.2315 7.7278C17.2315 7.19718 16.8016 6.76703 16.2713 6.76703C15.741 6.76703 15.3112 7.19718 15.3112 7.7278C15.3112 8.25842 15.741 8.68857 16.2713 8.68857Z" fill="white"/>
<path d="M4 12C4 14.1745 4.0096 14.4468 4.04801 15.2986C4.08642 16.1505 4.22404 16.7334 4.41928 17.2426C4.62412 17.7678 4.89618 18.2162 5.34107 18.6581C5.78276 19.1001 6.23085 19.3787 6.75575 19.5805C7.26465 19.779 7.84717 19.9135 8.69854 19.952C9.55311 19.9904 9.82517 20 11.9952 20C14.1684 20 14.4405 19.9904 15.2919 19.952C16.1432 19.9135 16.7257 19.7758 17.2346 19.5805C17.7596 19.3755 18.2076 19.1033 18.6493 18.6581C19.091 18.2162 19.3695 17.7678 19.5711 17.2426C19.7696 16.7334 19.904 16.1505 19.9424 15.2986C19.9808 14.4436 19.9904 14.1713 19.9904 12C19.9904 9.82546 19.9808 9.55324 19.9424 8.70136C19.904 7.84948 19.7664 7.26661 19.5711 6.75741C19.3663 6.23219 19.0942 5.78383 18.6493 5.34187C18.2108 4.89672 17.7628 4.6213 17.2378 4.41954C16.7289 4.22098 16.1464 4.08647 15.2951 4.04804C14.4405 4.00961 14.1684 4 11.9984 4C9.82516 4 9.55311 4.00961 8.70174 4.04804C7.85037 4.08647 7.26785 4.22418 6.75895 4.41954C6.23405 4.6245 5.78596 4.89672 5.34427 5.34187C4.90258 5.78703 4.62412 6.23219 4.42248 6.75741C4.22404 7.26661 4.08642 7.84948 4.04801 8.70136C4.0096 9.55324 4 9.82546 4 12ZM5.44349 12C5.44349 9.86389 5.45309 9.60769 5.4915 8.76541C5.52671 7.98399 5.65793 7.55805 5.76675 7.27942C5.91078 6.90793 6.08682 6.63891 6.36847 6.35709C6.65013 6.07526 6.91578 5.90552 7.29026 5.755C7.57191 5.64612 7.9976 5.51481 8.77536 5.47958C9.61712 5.44115 9.86997 5.43155 12.008 5.43155C14.146 5.43155 14.3989 5.44115 15.2406 5.47958C16.0216 5.51481 16.4473 5.64612 16.7257 5.755C17.097 5.89912 17.3659 6.07526 17.6475 6.35709C17.9292 6.63891 18.0988 6.90472 18.2493 7.27942C18.3581 7.56125 18.4893 7.98719 18.5245 8.76541C18.5629 9.60769 18.5725 9.86069 18.5725 12C18.5725 14.1393 18.5629 14.3923 18.5245 15.2346C18.4893 16.016 18.3581 16.442 18.2493 16.7206C18.1052 17.0921 17.9292 17.3611 17.6475 17.6429C17.3659 17.9247 17.1002 18.0945 16.7257 18.245C16.4441 18.3539 16.0184 18.4852 15.2406 18.5204C14.3989 18.5588 14.146 18.5685 12.008 18.5685C9.86997 18.5685 9.61712 18.5588 8.77536 18.5204C7.9944 18.4852 7.56871 18.3539 7.29026 18.245C6.91898 18.1009 6.65013 17.9247 6.36847 17.6429C6.08682 17.3611 5.91718 17.0953 5.76675 16.7206C5.65793 16.4388 5.52671 16.0128 5.4915 15.2346C5.44989 14.3923 5.44349 14.1361 5.44349 12Z" fill="white"/>
<defs>
<radialGradient id="paint0_radial_3_186" cx="0" cy="0" r="1" gradientUnits="userSpaceOnUse" gradientTransform="translate(6.37503 25.8485) rotate(-90) scale(23.7858 22.1226)">
<stop stop-color="#FFDD55"/>
<stop offset="0.1" stop-color="#FFDD55"/>
<stop offset="0.5" stop-color="#FF543E"/>
<stop offset="1" stop-color="#C837AB"/>
</radialGradient>
<radialGradient id="paint1_radial_3_186" cx="0" cy="0" r="1" gradientUnits="userSpaceOnUse" gradientTransform="translate(-4.02013 1.72892) rotate(78.6806) scale(10.6323 43.827)">
<stop stop-color="#3771C8"/>
<stop offset="0.128" stop-color="#3771C8"/>
<stop offset="1" stop-color="#6600FF" stop-opacity="0"/>
</radialGradient>
</defs>
</svg>
